<?xml version="1.0" encoding="UTF-8"?>
<svg version="1.1" xmlns="http://www.w3.org/2000/svg" width="600" height="480">
<path d="M0 0 C198 0 396 0 600 0 C600 158.4 600 316.8 600 480 C402 480 204 480 0 480 C0 321.6 0 163.2 0 0 Z " fill="#FEFEFE" transform="translate(0,0)"/>
<path d="M0 0 C0.9774115 -0.00315216 1.954823 -0.00630432 2.96185303 -0.009552 C4.00472473 -0.00752777 5.04759644 -0.00550354 6.12207031 -0.00341797 C7.2002301 -0.00437469 8.27838989 -0.00533142 9.38922119 -0.00631714 C11.6619879 -0.00699641 13.93475657 -0.00515976 16.20751953 -0.00097656 C19.70121562 0.0043961 23.19478436 -0.0009408 26.68847656 -0.00732422 C28.8955081 -0.0066638 31.10253955 -0.0053834 33.30957031 -0.00341797 C34.36053894 -0.0054422 35.41150757 -0.00746643 36.49432373 -0.009552 C37.94152802 -0.00482376 37.94152802 -0.00482376 39.41796875 0 C40.27114685 0.00079559 41.12432495 0.00159119 42.00335693 0.00241089 C43.95019531 0.12939453 43.95019531 0.12939453 44.95019531 1.12939453 C45.19953101 2.73055029 45.42398179 4.33559612 45.63769531 5.94189453 C47.29581672 15.24915996 51.12998437 23.72652117 58.66503906 29.66455078 C67.98512989 35.63896798 76.89659365 38.40843221 87.85253906 36.66845703 C99.53989981 34.11137682 107.37815938 29.17837914 113.95019531 19.12939453 C114.28019531 18.46939453 114.61019531 17.80939453 114.95019531 17.12939453 C124.46278243 19.50754131 130.70455983 26.17138167 135.95019531 34.12939453 C141.3779128 43.52020732 144.50381599 52.5986046 142.52050781 63.48876953 C140.18463969 71.85175418 135.32028193 76.98651911 127.8605957 81.28100586 C105.4491876 93.4332876 79.70463858 97.01915254 55.09521484 89.81396484 C31.61725626 82.32111305 11.42600238 66.12089 -0.33813477 44.37792969 C-7.56169978 30.28207672 -11.00870466 16.9618985 -10.04980469 1.12939453 C-6.64048786 0.36163379 -3.49210845 0.00324431 0 0 Z " fill="#2B0856" transform="translate(234.0498046875,182.87060546875)"/>
<path d="M0 0 C1.66869141 -0.01836914 1.66869141 -0.01836914 3.37109375 -0.03710938 C14.72341376 -0.05693298 24.92386008 1.47584586 35.4375 5.8125 C36.72829468 6.34145874 36.72829468 6.34145874 38.04516602 6.88110352 C48.44964314 11.3014602 56.94009014 16.27245486 61.375 27.1875 C64.30759622 35.98528866 61.77822508 44.86961752 58.375 53.1875 C53.40734207 62.71704183 47.14993813 70.48801052 37.375 75.1875 C36.385 75.1875 35.395 75.1875 34.375 75.1875 C32.9375 73.24609375 32.9375 73.24609375 31.375 70.625 C26.04862254 62.6692879 18.63696548 58.31417448 9.375 56.1875 C-3.56089162 55.04296638 -14.35041095 56.6022451 -24.6171875 65.12109375 C-32.05106679 72.77191505 -34.7517265 81.88449574 -36.625 92.1875 C-54.445 92.5175 -72.265 92.8475 -90.625 93.1875 C-90.625 96.1575 -90.625 99.1275 -90.625 102.1875 C-90.955 102.1875 -91.285 102.1875 -91.625 102.1875 C-92.29465983 84.36710776 -90.57551966 68.38987097 -82.625 52.1875 C-82.17253906 51.25550781 -81.72007812 50.32351562 -81.25390625 49.36328125 C-70.07835464 27.64818503 -50.6056718 12.14774635 -27.91796875 3.828125 C-18.45751197 0.84402663 -9.87904374 0.00560672 0 0 Z " fill="#8A3AEE" transform="translate(314.625,90.8125)"/>
<path d="M0 0 C44.22 0 88.44 0 134 0 C134 14.52051836 134 14.52051836 128 21 C113.88100673 35.01885857 90.08780104 39.29900016 71.09082031 39.31469727 C45.05092964 38.91908943 23.24874215 27.03405107 5 9 C0 3.81481481 0 3.81481481 0 0 Z " fill="#240748" transform="translate(242,237)"/>
<path d="M0 0 C1.66869141 -0.01836914 1.66869141 -0.01836914 3.37109375 -0.03710938 C14.72341376 -0.05693298 24.92386008 1.47584586 35.4375 5.8125 C36.29802979 6.16513916 37.15855957 6.51777832 38.04516602 6.88110352 C48.44964314 11.3014602 56.94009014 16.27245486 61.375 27.1875 C62.37996852 30.20240557 62.47835303 32.22931692 62.4375 35.375 C62.42847656 36.27605469 62.41945313 37.17710938 62.41015625 38.10546875 C62.39275391 39.13607422 62.39275391 39.13607422 62.375 40.1875 C62.045 39.5275 61.715 38.8675 61.375 38.1875 C16.825 38.1875 -27.725 38.1875 -73.625 38.1875 C-60.91736564 19.12604846 -40.78026033 6.53011727 -18.625 1.1875 C-12.38702686 0.00637735 -6.33041234 0.00359274 0 0 Z " fill="#AC71F4" transform="translate(314.625,90.8125)"/>
<path d="M0 0 C7.38987499 4.20169989 12.72856935 9.94150686 15.90234375 17.8828125 C17.8802267 25.7241236 17.71178425 34.25591254 13.88671875 41.4765625 C9.38454086 48.35599657 3.74880959 54.4109412 -4.23046875 57.10546875 C-14.15888825 58.88028356 -22.98235826 58.16412408 -31.4375 52.5 C-32.365625 51.901875 -33.29375 51.30375 -34.25 50.6875 C-40.68987163 44.24762837 -43.71962856 36.71618362 -43.75 27.625 C-43.53348503 17.29723593 -40.95685022 12.24862887 -33.85546875 4.70703125 C-24.62117764 -3.72168358 -11.23307271 -5.2335907 0 0 Z " fill="#BC8EF6" transform="translate(329.4375,155.5)"/>
<path d="M0 0 C3.58929624 1.71099927 4.88929277 3.24049688 6.90625 6.75390625 C9.08630526 14.02984067 9.44698786 23.04192223 6.34375 30.06640625 C4.1653229 33.61109425 2.01311592 35.15796559 -2.03125 36.37890625 C-6.73300426 37.04576188 -10.06405062 36.82668374 -14.40625 34.81640625 C-18.79644778 30.73979402 -19.82309207 27.68663246 -20.34765625 21.87109375 C-20.58097468 14.2995345 -20.48301186 8.63543643 -16.03125 2.37890625 C-11.55924663 -1.70978255 -5.60802998 -1.71476301 0 0 Z " fill="#2B104C" transform="translate(235.03125,309.62109375)"/>
<path d="M0 0 C4.5478125 -0.1546875 4.5478125 -0.1546875 9.1875 -0.3125 C10.13391357 -0.35802002 11.08032715 -0.40354004 12.05541992 -0.45043945 C16.4430531 -0.52262745 18.43287621 -0.41010722 22.08984375 2.234375 C24.05632677 5.08155287 24.59836024 6.18270686 24.375 9.5625 C24.34148437 10.30628906 24.30796875 11.05007813 24.2734375 11.81640625 C24 14 24 14 23.3515625 16.15234375 C23.23554688 16.76207031 23.11953125 17.37179687 23 18 C23.66 18.66 24.32 19.32 25 20 C25.43743808 25.33674462 25.44818791 28.65783745 22 33 C18.84685215 35.10209857 18.13896919 35.2434761 14.55078125 35.1953125 C13.78677002 35.19031738 13.02275879 35.18532227 12.2355957 35.18017578 C11.27097412 35.16196777 10.30635254 35.14375977 9.3125 35.125 C6.239375 35.08375 3.16625 35.0425 0 35 C0 23.45 0 11.9 0 0 Z " fill="#290D4C" transform="translate(360,310)"/>
<path d="M0 0 C3.96 0 7.92 0 12 0 C14.26851764 6.51949351 16.10185473 13.03376235 17.6875 19.75 C17.91244141 20.66910156 18.13738281 21.58820313 18.36914062 22.53515625 C18.6872168 23.87126953 18.6872168 23.87126953 19.01171875 25.234375 C19.20209717 26.03069336 19.39247559 26.82701172 19.58862305 27.64746094 C20.02488673 30.14231959 20.07089713 32.4723633 20 35 C17.03 35 14.06 35 11 35 C10.67 32.69 10.34 30.38 10 28 C7.36 28 4.72 28 2 28 C2.020625 28.969375 2.04125 29.93875 2.0625 30.9375 C2 34 2 34 1 35 C-2.00003445 35.14177857 -4.99757235 35.04228771 -8 35 C-6.52559622 27.23246297 -4.74181562 19.55663366 -2.875 11.875 C-2.45927734 10.15410156 -2.45927734 10.15410156 -2.03515625 8.3984375 C-1.35851353 5.59853661 -0.67950246 2.79920824 0 0 Z " fill="#270B4B" transform="translate(328,310)"/>
<path d="M0 0 C2.97 0 5.94 0 9 0 C10.32 2.64 11.64 5.28 13 8 C14.77706209 5.33440687 15.87548273 2.9719385 17 0 C20.3 0 23.6 0 27 0 C25.92766135 3.57446217 24.63586391 6.70087133 22.8125 9.9375 C20.73772032 14.07145952 20.68935138 16.4512783 22 21 C23.24333674 23.88892949 24.55062254 26.7259086 25.94140625 29.546875 C27 32 27 32 27 35 C24.03 35 21.06 35 18 35 C16.35 31.7 14.7 28.4 13 25 C11.68 28.3 10.36 31.6 9 35 C5.7 35 2.4 35 -1 35 C-0.22462891 33.24623047 -0.22462891 33.24623047 0.56640625 31.45703125 C1.23246339 29.90915199 1.89778983 28.36095817 2.5625 26.8125 C2.90474609 26.04357422 3.24699219 25.27464844 3.59960938 24.48242188 C6.0380131 18.87574788 6.0380131 18.87574788 5 13 C4.19677146 11.26713319 3.34071606 9.55791539 2.4375 7.875 C0 3.33144476 0 3.33144476 0 0 Z " fill="#280E4B" transform="translate(397,310)"/>
<path d="M0 0 C2.70279384 1.80186256 4.17508178 2.85016357 5.625 5.75 C5.8125 9.5 5.8125 9.5 5.625 12.75 C2.985 12.75 0.345 12.75 -2.375 12.75 C-3.035 11.1 -3.695 9.45 -4.375 7.75 C-6.355 7.75 -8.335 7.75 -10.375 7.75 C-11.85399501 10.70799003 -11.50678874 13.3983576 -11.5 16.6875 C-11.50257813 17.93402344 -11.50515625 19.18054688 -11.5078125 20.46484375 C-11.52699431 23.75676297 -11.52699431 23.75676297 -10.375 26.75 C-8.395 26.75 -6.415 26.75 -4.375 26.75 C-4.045 25.43 -3.715 24.11 -3.375 22.75 C-0.405 22.75 2.565 22.75 5.625 22.75 C5.36885063 27.10453922 5.05222153 29.24609768 2.1875 32.625 C-1.90114057 36.01557998 -4.63515244 36.10561424 -9.83203125 36.015625 C-13.7373787 35.60769316 -15.60509638 34.51990362 -18.375 31.75 C-22.14540141 25.09803705 -22.21758919 17.17414698 -21.375 9.75 C-20.14824365 5.52230743 -18.42792907 2.712678 -15.1875 -0.25 C-9.91698505 -2.12396087 -5.22243437 -1.93423495 0 0 Z " fill="#2B114D" transform="translate(197.375,310.25)"/>
<path d="M0 0 C2.64 0 5.28 0 8 0 C8 9.24 8 18.48 8 28 C12.29 28 16.58 28 21 28 C21 30.31 21 32.62 21 35 C14.07 35 7.14 35 0 35 C0 23.45 0 11.9 0 0 Z " fill="#230747" transform="translate(289,310)"/>
<path d="M0 0 C2.64 0 5.28 0 8 0 C8 9.24 8 18.48 8 28 C12.29 28 16.58 28 21 28 C21 30.31 21 32.62 21 35 C14.07 35 7.14 35 0 35 C0 23.45 0 11.9 0 0 Z " fill="#230747" transform="translate(256,310)"/>
<path d="M0 0 C3.125 -0.1875 3.125 -0.1875 6 0 C8.17490115 3.52126852 8.26877787 6.40642467 8.25 10.5 C8.25515625 11.6240625 8.2603125 12.748125 8.265625 13.90625 C8.01284295 16.85041743 7.53364541 18.51695505 6 21 C3.125 21.1875 3.125 21.1875 0 21 C-2.41564046 17.37653931 -2.29781669 14.68396018 -2.25 10.5 C-2.25773438 9.82324219 -2.26546875 9.14648438 -2.2734375 8.44921875 C-2.25884811 4.75080743 -2.10264442 3.15396663 0 0 Z " fill="#F9F9FA" transform="translate(226,317)"/>
<path d="M0 0 C0.680625 0.12375 1.36125 0.2475 2.0625 0.375 C1.58681912 5.36964924 0.11089109 8.40285403 -2.9375 12.375 C-3.9275 12.87 -3.9275 12.87 -4.9375 13.375 C-5.66443904 15.35388961 -6.33566251 17.35454558 -6.9375 19.375 C-7.9275 19.375 -8.9175 19.375 -9.9375 19.375 C-10.2675 18.715 -10.5975 18.055 -10.9375 17.375 C-12.2575 17.705 -13.5775 18.035 -14.9375 18.375 C-17.10991379 13.06465517 -17.10991379 13.06465517 -16.375 10.125 C-14.49644974 7.83806925 -12.68902701 7.4756108 -9.9375 6.375 C-8.74654629 5.36119044 -7.58138732 4.31663131 -6.4375 3.25 C-3.29978342 0.42124895 -3.29978342 0.42124895 0 0 Z " fill="#B785F5" transform="translate(566.9375,357.625)"/>
<path d="M0 0 C6.8359375 -0.29296875 6.8359375 -0.29296875 9 0 C11.46324069 3.69486103 11.38991688 5.63293092 11 10 C10 11.9375 10 11.9375 8 13 C5.28117977 13.23595284 2.74042978 13.13477523 0 13 C0 8.71 0 4.42 0 0 Z " fill="#9246F0" transform="translate(78,361)"/>
<path d="M0 0 C3.0625 0.3125 3.0625 0.3125 4.9375 1.4375 C6.59827671 4.20546119 6.45055206 6.14340818 6.0625 9.3125 C4.9375 11.6875 4.9375 11.6875 3.0625 13.3125 C0.0625 13.8125 0.0625 13.8125 -2.9375 13.3125 C-4.875 11.75 -4.875 11.75 -5.9375 9.3125 C-5.48600609 0.58361767 -5.48600609 0.58361767 0 0 Z " fill="#9449F0" transform="translate(151.9375,360.6875)"/>
<path d="M0 0 C3.5 0.25 3.5 0.25 5.5 2.25 C5.96376812 9.55434783 5.96376812 9.55434783 3.5 13.25 C0 13.625 0 13.625 -3.5 13.25 C-6.21232939 9.18150591 -5.80699887 7.08523216 -5.5 2.25 C-3.5 0.25 -3.5 0.25 0 0 Z " fill="#9144EF" transform="translate(62.5,360.75)"/>
<path d="M0 0 C2.64 0 5.28 0 8 0 C8.34274406 1.66475686 8.67364302 3.33195323 9 5 C9.3403125 6.5778125 9.3403125 6.5778125 9.6875 8.1875 C9.790625 9.115625 9.89375 10.04375 10 11 C8 13 8 13 6.0546875 13.1953125 C4.03645833 13.13020833 2.01822917 13.06510417 0 13 C0 8.71 0 4.42 0 0 Z " fill="#A565F2" transform="translate(435,361)"/>
<path d="M0 0 C6.0546875 -0.1953125 6.0546875 -0.1953125 8 0 C8.66 0.66 9.32 1.32 10 2 C9.68834559 4.00349261 9.35236497 6.00326516 9 8 C9.36858988 10.76864953 9.36858988 10.76864953 10 13 C9.01 13 8.02 13 7 13 C6.71125 12.360625 6.4225 11.72125 6.125 11.0625 C5.17176549 8.84793921 5.17176549 8.84793921 3 8 C3 9.65 3 11.3 3 13 C2.01 13 1.02 13 0 13 C0 8.71 0 4.42 0 0 Z " fill="#A05DF1" transform="translate(329,361)"/>
<path d="M0 0 C0.66 0.33 1.32 0.66 2 1 C1.67128906 1.81210938 1.34257812 2.62421875 1.00390625 3.4609375 C-0.18885367 7.6657643 -0.18664609 11.29117275 -0.0625 15.625 C0.12121237 23.5450443 0.12121237 23.5450443 -0.56030273 26.10302734 C-1.15295926 28.65990754 -0.32714058 29.8141214 1 32 C0.01 32 -0.98 32 -2 32 C-5.72614281 24.23720248 -6.35730817 15.81206317 -4.390625 7.390625 C-3.32500415 4.4112361 -2.24797785 2.24797785 0 0 Z " fill="#AF76F6" transform="translate(291,166)"/>
<path d="M0 0 C6.15234375 -0.09765625 6.15234375 -0.09765625 8 0 C9 1 9 1 9 4.8125 C8.9896875 5.53050781 8.979375 6.24851562 8.96875 6.98828125 C9.00191572 9.12332452 9.32452774 10.97358321 10 13 C8.0625 12.6875 8.0625 12.6875 6 12 C5.67 11.01 5.34 10.02 5 9 C4.34 8.67 3.68 8.34 3 8 C3 9.65 3 11.3 3 13 C2.01 13 1.02 13 0 13 C0 8.71 0 4.42 0 0 Z " fill="#9A53F1" transform="translate(529,361)"/>
<path d="M0 0 C6.75 -0.125 6.75 -0.125 9 1 C9 5 9 9 9 13 C8.01 13 7.02 13 6 13 C5.67 11.35 5.34 9.7 5 8 C4.34 8 3.68 8 3 8 C3 9.65 3 11.3 3 13 C2.01 13 1.02 13 0 13 C0 8.71 0 4.42 0 0 Z " fill="#9C57F1" transform="translate(265,361)"/>
<path d="M0 0 C1.65 0 3.3 0 5 0 C5.50757862 1.41396902 6.00574925 2.83131729 6.5 4.25 C6.7784375 5.03890625 7.056875 5.8278125 7.34375 6.640625 C8 9 8 9 8 13 C7.01 13 6.02 13 5 13 C5 12.01 5 11.02 5 10 C3.35 10 1.7 10 0 10 C0 10.99 0 11.98 0 13 C-0.99 13 -1.98 13 -3 13 C-2.68991116 11.39536551 -2.37683713 9.79130769 -2.0625 8.1875 C-1.88847656 7.29417969 -1.71445312 6.40085937 -1.53515625 5.48046875 C-1 3 -1 3 0 0 Z " fill="#9042EF" transform="translate(370,361)"/>
<path d="M0 0 C0.99 0 1.98 0 3 0 C3 1.65 3 3.3 3 5 C4.32 5 5.64 5 7 5 C7 3.35 7 1.7 7 0 C7.99 0 8.98 0 10 0 C10 4.29 10 8.58 10 13 C9.01 13 8.02 13 7 13 C7 11.35 7 9.7 7 8 C5.68 8 4.36 8 3 8 C3 9.65 3 11.3 3 13 C2.01 13 1.02 13 0 13 C0 8.71 0 4.42 0 0 Z " fill="#9041EF" transform="translate(225,361)"/>
<path d="M0 0 C0 0.99 0 1.98 0 3 C-1.2065625 2.9690625 -1.2065625 2.9690625 -2.4375 2.9375 C-4.93354885 2.70366379 -4.93354885 2.70366379 -6 4 C-6.04063832 5.66617115 -6.042721 7.33388095 -6 9 C-4.68 9.66 -3.36 10.32 -2 11 C-2 10.01 -2 9.02 -2 8 C-2.66 8 -3.32 8 -4 8 C-4 7.01 -4 6.02 -4 5 C-2.35 5.33 -0.7 5.66 1 6 C1 8.31 1 10.62 1 13 C-6.40256709 13.48541424 -6.40256709 13.48541424 -9 11.375 C-10.2766188 8.34303035 -10.41616519 6.25996064 -10 3 C-7.7109263 -1.03954182 -4.21983723 -0.23885871 0 0 Z " fill="#9347F0" transform="translate(177,361)"/>
<path d="M0 0 C2.97 0 5.94 0 9 0 C9 0.66 9 1.32 9 2 C7.02 2 5.04 2 3 2 C3 2.99 3 3.98 3 5 C4.65 5 6.3 5 8 5 C8 5.99 8 6.98 8 8 C6.68 8 5.36 8 4 8 C4 8.66 4 9.32 4 10 C5.98 10 7.96 10 10 10 C9.67 10.99 9.34 11.98 9 13 C2.84765625 13.09765625 2.84765625 13.09765625 1 13 C0 12 0 12 -0.09765625 9.27734375 C-0.08605469 8.17519531 -0.07445312 7.07304687 -0.0625 5.9375 C-0.05347656 4.83277344 -0.04445313 3.72804688 -0.03515625 2.58984375 C-0.02355469 1.73519531 -0.01195312 0.88054687 0 0 Z " fill="#9D57F1" transform="translate(404,361)"/>
<path d="M0 0 C-0.47610659 4.99911924 -2.03162219 7.97832683 -5 12 C-6.98 11.34 -8.96 10.68 -11 10 C-10.74028905 6.19090609 -10.41701925 4.44018699 -7.75 1.625 C-4.80867557 -0.11305534 -3.3450389 -0.38229016 0 0 Z " fill="#BE91F6" transform="translate(569,358)"/>
<path d="M0 0 C2.97 0 5.94 0 9 0 C9 0.66 9 1.32 9 2 C7.02 2 5.04 2 3 2 C3 2.99 3 3.98 3 5 C4.65 5 6.3 5 8 5 C8 5.99 8 6.98 8 8 C6.35 8 4.7 8 3 8 C3 8.66 3 9.32 3 10 C4.98 10 6.96 10 9 10 C9 10.99 9 11.98 9 13 C2.84765625 13.09765625 2.84765625 13.09765625 1 13 C0 12 0 12 -0.09765625 9.27734375 C-0.08605469 8.17519531 -0.07445312 7.07304687 -0.0625 5.9375 C-0.05347656 4.83277344 -0.04445312 3.72804688 -0.03515625 2.58984375 C-0.02355469 1.73519531 -0.01195312 0.88054687 0 0 Z " fill="#984FF0" transform="translate(188,361)"/>
<path d="M0 0 C2.97 0 5.94 0 9 0 C9 0.66 9 1.32 9 2 C7.02 2 5.04 2 3 2 C3 2.99 3 3.98 3 5 C4.65 5 6.3 5 8 5 C8 5.99 8 6.98 8 8 C6.35 8 4.7 8 3 8 C3 8.66 3 9.32 3 10 C4.98 10 6.96 10 9 10 C8.67 10.99 8.34 11.98 8 13 C5.66705225 13.04241723 3.33297433 13.04092937 1 13 C0 12 0 12 -0.09765625 9.27734375 C-0.08605469 8.17519531 -0.07445312 7.07304687 -0.0625 5.9375 C-0.05347656 4.83277344 -0.04445313 3.72804688 -0.03515625 2.58984375 C-0.02355469 1.73519531 -0.01195312 0.88054687 0 0 Z " fill="#964CF0" transform="translate(510,361)"/>
<path d="M0 0 C2.97 0 5.94 0 9 0 C9 0.66 9 1.32 9 2 C7.02 2 5.04 2 3 2 C3 2.99 3 3.98 3 5 C4.65 5 6.3 5 8 5 C8 5.99 8 6.98 8 8 C6.35 8 4.7 8 3 8 C3 8.66 3 9.32 3 10 C4.98 10 6.96 10 9 10 C8.67 10.99 8.34 11.98 8 13 C5.66705225 13.04241723 3.33297433 13.04092937 1 13 C0 12 0 12 -0.09765625 9.27734375 C-0.08605469 8.17519531 -0.07445312 7.07304687 -0.0625 5.9375 C-0.05347656 4.83277344 -0.04445313 3.72804688 -0.03515625 2.58984375 C-0.02355469 1.73519531 -0.01195312 0.88054687 0 0 Z " fill="#964CF0" transform="translate(455,361)"/>
<path d="M0 0 C2.64 0 5.28 0 8 0 C8 0.66 8 1.32 8 2 C6.35 2 4.7 2 3 2 C3 2.99 3 3.98 3 5 C4.65 5 6.3 5 8 5 C8 5.99 8 6.98 8 8 C6.35 8 4.7 8 3 8 C3 8.66 3 9.32 3 10 C4.98 10 6.96 10 9 10 C8.67 10.99 8.34 11.98 8 13 C5.36 13 2.72 13 0 13 C0 8.71 0 4.42 0 0 Z " fill="#954BF0" transform="translate(99,361)"/>
<path d="M0 0 C2.64 0 5.28 0 8 0 C8 0.66 8 1.32 8 2 C6.35 2 4.7 2 3 2 C3 2.99 3 3.98 3 5 C4.65 5 6.3 5 8 5 C8 5.99 8 6.98 8 8 C6.35 8 4.7 8 3 8 C3 8.66 3 9.32 3 10 C4.98 10 6.96 10 9 10 C8.67 10.99 8.34 11.98 8 13 C5.66705225 13.04241723 3.33297433 13.04092937 1 13 C0 12 0 12 -0.09765625 9.27734375 C-0.08605469 8.17519531 -0.07445312 7.07304687 -0.0625 5.9375 C-0.05347656 4.83277344 -0.04445313 3.72804688 -0.03515625 2.58984375 C-0.02355469 1.73519531 -0.01195312 0.88054687 0 0 Z " fill="#9449F0" transform="translate(349,361)"/>
<path d="M0 0 C3 0.25 3 0.25 5 2.25 C5 3.24 5 4.23 5 5.25 C4.01 5.25 3.02 5.25 2 5.25 C1.67 4.59 1.34 3.93 1 3.25 C0.34 3.25 -0.32 3.25 -1 3.25 C-1.33 5.56 -1.66 7.87 -2 10.25 C-0.02 9.92 1.96 9.59 4 9.25 C4.33 10.24 4.66 11.23 5 12.25 C2.17116253 13.66441874 0.12623255 13.56900332 -3 13.25 C-4.9375 11.6875 -4.9375 11.6875 -6 9.25 C-5.54545455 0.46212121 -5.54545455 0.46212121 0 0 Z " fill="#9A52F1" transform="translate(43,360.75)"/>
<path d="M0 0 C0.33 0 0.66 0 1 0 C1 1.98 1 3.96 1 6 C-16.82 6.33 -34.64 6.66 -53 7 C-53 9.97 -53 12.94 -53 16 C-53.33 16 -53.66 16 -54 16 C-54.02688151 14.35425434 -54.04634123 12.70838587 -54.0625 11.0625 C-54.07410156 10.14597656 -54.08570313 9.22945312 -54.09765625 8.28515625 C-54 6 -54 6 -53 5 C-51.40389018 4.90666295 -49.80366572 4.88254628 -48.20483398 4.88647461 C-47.18385117 4.88655014 -46.16286835 4.88662567 -45.11094666 4.88670349 C-44.0005452 4.89186478 -42.89014374 4.89702606 -41.74609375 4.90234375 C-40.05021873 4.90446617 -40.05021873 4.90446617 -38.32008362 4.90663147 C-34.69252935 4.91224981 -31.06503576 4.92480542 -27.4375 4.9375 C-24.98502693 4.94251264 -22.5325529 4.94707595 -20.08007812 4.95117188 C-14.05336455 4.9622252 -8.02668661 4.97898116 -2 5 C-1.34 3.35 -0.68 1.7 0 0 Z " fill="#7034C8" transform="translate(277,177)"/>
<path d="M0 0 C2.64 0 5.28 0 8 0 C8 0.66 8 1.32 8 2 C6.35 2 4.7 2 3 2 C3 2.99 3 3.98 3 5 C4.32 5 5.64 5 7 5 C7 5.99 7 6.98 7 8 C5.68 8 4.36 8 3 8 C3 8.66 3 9.32 3 10 C4.98 10 6.96 10 9 10 C8.67 10.99 8.34 11.98 8 13 C5.36 13 2.72 13 0 13 C0 8.71 0 4.42 0 0 Z " fill="#9449F0" transform="translate(246,361)"/>
<path d="M0 0 C2 2 2 2 2 5 C1.01 5 0.02 5 -1 5 C-1.33 4.34 -1.66 3.68 -2 3 C-2.99 3 -3.98 3 -5 3 C-5 4.98 -5 6.96 -5 9 C-2.03 9.495 -2.03 9.495 1 10 C0.67 10.99 0.34 11.98 0 13 C-3.375 13.1875 -3.375 13.1875 -7 13 C-9.46324069 9.30513897 -9.38991688 7.36706908 -9 3 C-6.8388936 -0.72190547 -4.01418597 -0.42704106 0 0 Z " fill="#964BF0" transform="translate(318,361)"/>
<path d="M0 0 C3.3 0 6.6 0 10 0 C9.67 0.99 9.34 1.98 9 3 C8.34 3 7.68 3 7 3 C7 6.3 7 9.6 7 13 C5.68 13 4.36 13 3 13 C3 9.7 3 6.4 3 3 C2.01 3 1.02 3 0 3 C0 2.01 0 1.02 0 0 Z " fill="#A15FF2" transform="translate(491,361)"/>
<path d="M0 0 C3.3 0 6.6 0 10 0 C10 0.66 10 1.32 10 2 C9.01 2 8.02 2 7 2 C7 5.63 7 9.26 7 13 C6.01 13 5.02 13 4 13 C4 9.37 4 5.74 4 2 C2.68 2 1.36 2 0 2 C0 1.34 0 0.68 0 0 Z " fill="#9041EF" transform="translate(128,361)"/>
<path d="M0 0 C2.97 0 5.94 0 9 0 C9 0.66 9 1.32 9 2 C8.01 2 7.02 2 6 2 C6 5.63 6 9.26 6 13 C5.01 13 4.02 13 3 13 C3 9.37 3 5.74 3 2 C2.01 2 1.02 2 0 2 C0 1.34 0 0.68 0 0 Z " fill="#8B3AEF" transform="translate(473,361)"/>
<path d="M0 0 C2.97 0 5.94 0 9 0 C9 0.66 9 1.32 9 2 C8.01 2 7.02 2 6 2 C6 5.63 6 9.26 6 13 C5.01 13 4.02 13 3 13 C3 9.37 3 5.74 3 2 C2.01 2 1.02 2 0 2 C0 1.34 0 0.68 0 0 Z " fill="#8C3BEF" transform="translate(386,361)"/>
<path d="M0 0 C2.97 0 5.94 0 9 0 C9 0.66 9 1.32 9 2 C8.01 2 7.02 2 6 2 C6 5.63 6 9.26 6 13 C5.01 13 4.02 13 3 13 C3 9.37 3 5.74 3 2 C2.01 2 1.02 2 0 2 C0 1.34 0 0.68 0 0 Z " fill="#8B39EF" transform="translate(206,361)"/>
<path d="M0 0 C1.99954746 -0.04254356 4.00041636 -0.04080783 6 0 C7 1 7 1 7.125 3.5 C7 6 7 6 6 7 C4.00041636 7.04080783 1.99954746 7.04254356 0 7 C0 4.69 0 2.38 0 0 Z " fill="#F2F1F4" transform="translate(369,331)"/>
<path d="M0 0 C1.65 0 3.3 0 5 0 C5.33 1.65 5.66 3.3 6 5 C5.34 5 4.68 5 4 5 C4 5.99 4 6.98 4 8 C3.38125 7.814375 2.7625 7.62875 2.125 7.4375 C-0.04160178 6.76313824 -0.04160178 6.76313824 -2 8 C-1.34 5.36 -0.68 2.72 0 0 Z " fill="#A96DF3" transform="translate(370,361)"/>
<path d="M0 0 C2.475 0.495 2.475 0.495 5 1 C5.125 3.875 5.125 3.875 5 7 C4.34 7.66 3.68 8.32 3 9 C2.01 9 1.02 9 0 9 C0 6.03 0 3.06 0 0 Z " fill="#ECDEFC" transform="translate(81,363)"/>
<path d="M0 0 C2.0625 0.4375 2.0625 0.4375 4 1 C4 3.31 4 5.62 4 8 C2.0625 8.5625 2.0625 8.5625 0 9 C-1 8 -1 8 -1.125 4.5 C-1 1 -1 1 0 0 Z " fill="#F4EDFD" transform="translate(61,363)"/>
<path d="M0 0 C0.99 0 1.98 0 3 0 C3.33 2.31 3.66 4.62 4 7 C2.02 7.99 2.02 7.99 0 9 C-1 8 -1 8 -1.125 4.5 C-1 1 -1 1 0 0 Z " fill="#F5EEFD" transform="translate(151,363)"/>
<path d="M0 0 C1.66611905 -0.042721 3.33382885 -0.04063832 5 0 C6 1 6 1 6.0625 3.5625 C6.041875 4.366875 6.02125 5.17125 6 6 C4.02 6 2.04 6 0 6 C0 4.02 0 2.04 0 0 Z " fill="#F4F3F6" transform="translate(369,317)"/>
<path d="M0 0 C1 2 1 2 1 5 C2.32 5.66 3.64 6.32 5 7 C4.34 8.65 3.68 10.3 3 12 C2.34 11.01 1.68 10.02 1 9 C-0.31266518 7.64631404 -1.64567325 6.31200404 -3 5 C-3.66 4.34 -4.32 3.68 -5 3 C-3.35 2.01 -1.7 1.02 0 0 Z " fill="#A363F2" transform="translate(558,363)"/>
<path d="M0 0 C0.66 0 1.32 0 2 0 C2.33 2.97 2.66 5.94 3 9 C1.68 9 0.36 9 -1 9 C-0.67 6.03 -0.34 3.06 0 0 Z " fill="#D2CCD9" transform="translate(333,322)"/>
<path d="M0 0 C3.93846154 4.30769231 3.93846154 4.30769231 4.25 7.8125 C4.1675 8.534375 4.085 9.25625 4 10 C3.01 10 2.02 10 1 10 C0.67 6.7 0.34 3.4 0 0 Z " fill="#CDAAF8" transform="translate(556,367)"/>
<path d="M0 0 C0.99 0 1.98 0 3 0 C2.95875 0.9075 2.9175 1.815 2.875 2.75 C2.99531556 5.8782046 3.3914708 7.38614006 5 10 C4.01 10 3.02 10 2 10 C0.39644899 6.49223216 -0.22036864 3.85645121 0 0 Z " fill="#A376EC" transform="translate(287,188)"/>
<path d="M0 0 C0.33 0 0.66 0 1 0 C1 3.3 1 6.6 1 10 C0.01 9.34 -0.98 8.68 -2 8 C-2.3125 5 -2.3125 5 -2 2 C-1.34 1.34 -0.68 0.68 0 0 Z " fill="#F8E2FE" transform="translate(285,176)"/>
<path d="M0 0 C0.66 0.33 1.32 0.66 2 1 C1.34 2.98 0.68 4.96 0 7 C-0.66 7 -1.32 7 -2 7 C-2.33 7.99 -2.66 8.98 -3 10 C-3.75 8.375 -3.75 8.375 -4 6 C-2.0625 2.75 -2.0625 2.75 0 0 Z " fill="#B180ED" transform="translate(291,166)"/>
<path d="M0 0 C0.33 0.99 0.66 1.98 1 3 C0.01 3 -0.98 3 -2 3 C-1.505 3.45375 -1.01 3.9075 -0.5 4.375 C1 6 1 6 1 8 C-0.65 7.67 -2.3 7.34 -4 7 C-3.6875 4.625 -3.6875 4.625 -3 2 C-2.01 1.34 -1.02 0.68 0 0 Z " fill="#F4ECFD" transform="translate(562,361)"/>
<path d="M0 0 C1.67542976 0.28604898 3.34385343 0.61781233 5 1 C5.33 2.32 5.66 3.64 6 5 C5.01 5 4.02 5 3 5 C2.67 4.34 2.34 3.68 2 3 C1.01 2.34 0.02 1.68 -1 1 C-0.67 0.67 -0.34 0.34 0 0 Z " fill="#9042EF" transform="translate(42,361)"/>
<path d="M0 0 C1.485 0.99 1.485 0.99 3 2 C3 2.66 3 3.32 3 4 C3.66 4 4.32 4 5 4 C5 4.99 5 5.98 5 7 C1.125 6.125 1.125 6.125 0 5 C-0.04063832 3.33382885 -0.042721 1.66611905 0 0 Z " fill="#ECE0FC" transform="translate(170,365)"/>
<path d="M0 0 C1.32 0.66 2.64 1.32 4 2 C3.01 2.495 3.01 2.495 2 3 C1.34227572 6.02934491 1.34227572 6.02934491 1 9 C0.67 9 0.34 9 0 9 C-0.59732819 6.23735711 -1 3.83967231 -1 1 C-0.67 0.67 -0.34 0.34 0 0 Z " fill="#9B54F1" transform="translate(149,361)"/>
<path d="M0 0 C0.99 0 1.98 0 3 0 C3 1.65 3 3.3 3 5 C1.68 5.33 0.36 5.66 -1 6 C-0.67 4.02 -0.34 2.04 0 0 Z " fill="#9B55F1" transform="translate(284,371)"/>
</svg>
